/* XPM */
static char *collectable_xpm[] = {
"64 64 228 2 ",
"   c #44AF34",
".  c #794B26",
"X  c #7A4D29",
"o  c #7C4F2B",
"O  c #7B502D",
"+  c #7D502C",
"@  c #7D512D",
"#  c #7C512F",
"$  c #7E512E",
"%  c #7E522E",
"&  c #7E522F",
"*  c #7D5230",
"=  c #7F5330",
"-  c #7E5332",
";  c #7E5534",
":  c #7F5534",
">  c #7F5635",
",  c #805431",
"<  c #805532",
"1  c #815633",
"2  c #825734",
"3  c #825835",
"4  c #835937",
"5  c #815939",
"6  c #835B3B",
"7  c #845A38",
"8  c #845A39",
"9  c #865C3B",
"0  c #865D3B",
"q  c #855E3F",
"w  c #885F3E",
"e  c #88603F",
"r  c #845E40",
"t  c #866041",
"y  c #866042",
"u  c #866143",
"i  c #8B6343",
"p  c #886346",
"a  c #8B6444",
"s  c #8A6547",
"d  c #8D6646",
"f  c #8C6749",
"g  c #8E6748",
"h  c #8E6849",
"j  c #906A4B",
"k  c #916C4E",
"l  c #926C4E",
"z  c #8F6C50",
"x  c #936F51",
"c  c #957053",
"v  c #927156",
"b  c #977356",
"n  c #977357",
"m  c #977457",
"M  c #947358",
"N  c #97775E",
"B  c #9C7A5F",
"V  c #997A61",
"C  c #987A62",
"Z  c #997C64",
"A  c #9B7D65",
"S  c #9C7E66",
"D  c #9C7E67",
"F  c #9E7F66",
"G  c #9F836D",
"H  c #A18167",
"J  c #A3846B",
"K  c #A0846E",
"L  c #A0846F",
"P  c #A38872",
"I  c #A48A75",
"U  c #A58A75",
"Y  c #A48A76",
"T  c #A98B73",
"R  c #A98C75",
"E  c #AA8D76",
"W  c #A68D78",
"Q  c #AB8F78",
"!  c #A88F7B",
"~  c #AD917A",
"^  c #AE937C",
"/  c #AF947E",
"(  c #B0957F",
")  c #AC9582",
"_  c #B09580",
"`  c #B09680",
"'  c #B19781",
"]  c #B09987",
"[  c #B49A85",
"{  c #B49B86",
"}  c #B29C8B",
"|  c #B59C88",
" . c #B69D89",
".. c #B29D8C",
"X. c #B8A08D",
"o. c #B9A18E",
"O. c #B6A292",
"+. c #BBA491",
"@. c #B8A596",
"#. c #BEA795",
"$. c #BEA897",
"%. c #BAA899",
"&. c #BFA998",
"*. c #BDAB9D",
"=. c #BEAEA0",
"-. c #C0AB99",
";. c #C2AD9C",
":. c #C1B0A4",
">. c #C2B2A6",
",. c #C8B5A6",
"<. c #C9B6A7",
"1. c #C3B4A8",
"2. c #C5B7AC",
"3. c #C6B8AD",
"4. c #C7B9AE",
"5. c #CAB8AA",
"6. c #CCBBAC",
"7. c #CDBCAE",
"8. c #C9BCB1",
"9. c #C9BCB2",
"0. c #CEBDB0",
"q. c #CFBEB1",
"w. c #CFBFB2",
"e. c #CABEB4",
"r. c #CCC1B7",
"t. c #CDC1B8",
"y. c #CDC2B9",
"u. c #D0C0B2",
"i. c #D3C5B9",
"p. c #D4C5BA",
"a. c #D5C7BB",
"s. c #D1C7BF",
"d. c #D7C9BE",
"f. c #D2C9C1",
"g. c #D6CDC7",
"h. c #D6CEC7",
"j. c #D9CCC1",
"k. c #D9CCC2",
"l. c #DACDC3",
"z. c #DBCEC4",
"x. c #D6CEC8",
"c. c #DCD0C7",
"v. c #DDD1C7",
"b. c #D7D0CA",
"n. c #D8D0CA",
"m. c #DDD2C8",
"M. c #DFD4CB",
"N. c #D9D2CC",
"B. c #DAD4CF",
"V. c #DFD4CC",
"C. c #DFD5CC",
"Z. c #DDD8D3",
"A. c #DED8D4",
"S. c #DFDAD6",
"D. c #E0D5CC",
"F. c #E0D6CD",
"G. c #E1D7CF",
"H. c #E2D8D0",
"J. c #E2D9D1",
"K. c #E0DCD8",
"L. c #E0DCD9",
"P. c #E1DDDA",
"I. c #E1DEDA",
"U. c #E2DEDB",
"Y. c #E7DFD8",
"T. c #E7DFD9",
"R. c #E4E1DF",
"E. c #E4E2DF",
"W. c #EBE4DE",
"Q. c #EBE4DF",
"!. c #E6E4E2",
"~. c #E7E6E4",
"^. c #ECE6E1",
"/. c #EDE7E2",
"(. c #E9E7E6",
"). c #EEE8E3",
"_. c #EEE9E4",
"`. c #EAE9E8",
"'. c #EBEAE9",
"]. c #EBEAEA",
"[. c #ECEBEB",
"{. c #ECECEC",
"}. c gray93",
"|. c #EEEEED",
" X c #EDEEEE",
".X c #EEEEEE",
"XX c #EEEEEF",
"oX c #EEEFEF",
"OX c #EFEFEF",
"+X c #F1ECE8",
"@X c #F1EDE9",
"#X c #F5F2EF",
"$X c #EEEFF0",
"%X c #EFEFF0",
"&X c #EFF0F0",
"*X c #EFF0F1",
"=X c gray94",
"-X c #F0F0F1",
";X c #F0F1F1",
":X c #F1F1F1",
">X c gray95",
",X c #F3F3F3",
"<X c #F6F3F1",
"1X c #F5F4F3",
"2X c #F4F4F4",
"3X c gray96",
"4X c #F6F6F6",
"5X c gray97",
"6X c #F9F7F6",
"7X c #FAF8F7",
"8X c #F8F8F8",
"9X c #F9F9F9",
"0X c #FBF9F8",
"qX c #FBFAF9",
"wX c #F9F9FA",
"eX c gray98",
"rX c #FBFBFB",
"tX c #FCFBFA",
"yX c #FCFBFB",
"uX c #FCFCFB",
"iX c #FDFCFB",
"pX c gray99",
"aX c #FDFDFD",
"sX c #FEFDFD",
"dX c #FEFEFD",
"fX c #FEFEFE",
"gX c #FFFFFE",
"hX c white",
/* pixels */
"                                                                                                                                ",
"                                                                                                                                ",
"                                                                                                                                ",
"                                                                                                                                ",
"                                                                                                                                ",
"                                                                                                                                ",
"                                                                                                                                ",
"                                                                                                                                ",
"                                                                                                                                ",
"                                                                                                                                ",
"                                                                                                                                ",
"                                                                                                & e <                           ",
"                                                                                            = ^ k.T.z. .3                       ",
"                                                                                          & $.iXhXhXhXhX6.3                     ",
"                                                                                          J 7XhXhXhXhXhXhX .                    ",
"                                                                                          5.hXhXhXhXhXhXhXG.7                   ",
"                                                                                        & k.hXhXhXhXhXhXhXM.3                   ",
"                                                                                        < G.hXhXhXhXhXhXhXi.                    ",
"                                                                                        h ).hXhXhXhXhXhXhX/.n .                 ",
"                                                                                        ~ iXhXhXhXhXhXhXhXhX/.a./ &             ",
"                                                                                      f H.hXhXhXhXhXhXhXhXhXhXhXyX-.&           ",
"                                                                                    i d.hXhXhXhXhXhXhXhXhXhXhXhXhX6XH           ",
"                                                                                  B C.hXhXhXhXhXhXhXhXhXhXhXhXhXhXqX]           ",
"                                                                              & _ @XhXhXhXhXhXhXhXhXhXhXhXhXhXqX,X&X..          ",
"                                                                            j 7.yXhXhXhXhXhXhXqX5X,X,X,X,X,X}.}.}.[.K           ",
"                                                                        X R Q.hXhXhXhXhXhX5X,X}.}.}.}.}.}.}.}.}.%Xn.p           ",
"                                                                      d <.6XhXhXhXhXhX5X,X}.}.&X&X&X%X%X}.}.}.&XA.Z             ",
"                                                                  & ! T.hXhXhXhXhXqX,X}.}.~.h.2.1.>.t.f.B.A.N.>.M               ",
"                                                                x q.7XhXhXhXhXhX5X}.}.U.*.C 5       & > u s q                   ",
"                                                            e o./.hXhXhXhXhXqX,X}.].3.z                                         ",
"                                                        < T C.hXhXhXhXhXhX5X}.}.h.U >                                           ",
"                                                      l q.qXhXhXhXhXhXqX,X%X!.@.u                                               ",
"                                                  0 +._.hXhXhXhXhXqX,X}.}.s.F                                                   ",
"                                              < R m.hXhXhXhXhXhX5X}.}.E...5                                                     ",
"                                            n a.qXhXhXhXhXhXqX,X}.}.r.N                                                         ",
"                                        s #.@XhXhXhXhXhXhX5X}.%XU.} >                                                           ",
"                                    0 { T.hXhXhXhXhXhXqX,X}.[.e.v                                                               ",
"                2 w &           s { G.hXhXhXhXhXhXhX5X}.}.A.) >                                                                 ",
"            7 +.M.T.k.&.^ _ o.q.Q.hXhXhXhXhXhXhXqX,X}.].3.z                                                                     ",
"          7 u.hXhXhXhXhXhXhXhXhXhXhXhXhXhXhXhX5X}.}.b.K =                                                                       ",
"          _ hXhXhXhXhXhXhXhXhXhXhXhXhXhXhXqX,X}.(.%.u                                                                           ",
"        o d.hXhXhXhXhXhXhXhXhXhXhXhXhXhX5X}.}.U.U                                                                               ",
"        = c.hXhXhXhXhXhXhXhXhXhXhXhXhX5X}.}.A.Z                                                                                 ",
"          <.hXhXhXhXhXhXhXhXhXhXhXhXqX}.}.U.C                                                                                   ",
"          c T.hXhXhXhXhXhXhXhXhXhXhX}.}.].!                                                                                     ",
"            l ;.c.H.<XhXhXhXhXhXhX5X}.}.8.=                                                                                     ",
"                = < ( qXhXhXhXhXhX}.}.[.P                                                                                       ",
"                    m #XhXhXhXhX5X}.}.Z.f                                                                                       ",
"                    H qXhXhXhX5X}.}.%Xt.O                                                                                       ",
"                    F 1XqXqX,X}.}.}.,X*.                                                                                        ",
"                    s A.&X}.}.}.}.%XE.F                                                                                         ",
"                      U U.&X&X&X}.x.G                                                                                           ",
"                        v O.8.=.W r                                                                                             ",
"                                                                                                                                ",
"                                                                                                                                ",
"                                                                                                                                ",
"                                                                                                                                ",
"                                                                                                                                ",
"                                                                                                                                ",
"                                                                                                                                ",
"                                                                                                                                ",
"                                                                                                                                ",
"                                                                                                                                ",
"                                                                                                                                "
};
