/* XPM */
static char *floor_xpm[] = {
"64 64 171 2 ",
"   c #34A525",
".  c #37A827",
"X  c #37A728",
"o  c #38A729",
"O  c #37A828",
"+  c #3CAA2C",
"@  c #3EAA30",
"#  c #3EAB30",
"$  c #3FAB30",
"%  c #3FAA31",
"&  c #3FAB31",
"*  c #3FAC30",
"=  c #3FAD30",
"-  c #3FAC31",
";  c #3FAC30",
":  c #40AD2F",
">  c #40AB31",
",  c #40AB32",
"<  c #41AB32",
"1  c #40AC30",
"2  c #40AD30",
"3  c #40AC31",
"4  c #40AD31",
"5  c #41AD31",
"6  c #40AE30",
"7  c #41AE30",
"8  c #40AF30",
"9  c #41AF30",
"0  c #40AE31",
"q  c #41AE31",
"w  c #41AF31",
"e  c #41AC32",
"r  c #41AD32",
"t  c #41AC33",
"y  c #41AD33",
"u  c #42AD32",
"i  c #42AD33",
"p  c #41AE32",
"a  c #41AF32",
"s  c #42AE32",
"d  c #42AF32",
"f  c #42AE33",
"g  c #43AE33",
"h  c #42AF33",
"j  c #43AF33",
"k  c #43AD34",
"l  c #43AE34",
"z  c #43AF34",
"x  c #44AF34",
"c  c #44AE35",
"v  c #44AF35",
"b  c #45AF35",
"n  c #44AE36",
"m  c #44AF36",
"M  c #45AF36",
"N  c #45AF37",
"B  c #46AF37",
"V  c #42AE33",
"C  c #42B031",
"Z  c #42B032",
"A  c #43B032",
"S  c #43B132",
"D  c #43B033",
"F  c #44B033",
"G  c #44B133",
"H  c #43B034",
"J  c #43B134",
"K  c #43B135",
"L  c #43B235",
"P  c #44B034",
"I  c #45B034",
"U  c #44B134",
"Y  c #45B134",
"T  c #44B035",
"R  c #45B035",
"E  c #44B135",
"W  c #45B135",
"Q  c #46B135",
"!  c #44B235",
"~  c #46B235",
"^  c #45B036",
"/  c #44B136",
"(  c #45B136",
")  c #45B137",
"_  c #46B036",
"`  c #46B136",
"'  c #47B136",
"]  c #46B037",
"[  c #47B037",
"{  c #46B137",
"}  c #47B137",
"|  c #44B236",
" . c #45B337",
".. c #46B236",
"X. c #47B236",
"o. c #46B237",
"O. c #47B237",
"+. c #47B337",
"@. c #45B136",
"#. c #48B237",
"$. c #48B337",
"%. c #48B237",
"&. c #47B038",
"*. c #47B138",
"=. c #47B139",
"-. c #47B238",
";. c #46B338",
":. c #47B338",
">. c #46B438",
",. c #47B439",
"<. c #47B238",
"1. c #48B138",
"2. c #48B139",
"3. c #48B238",
"4. c #48B338",
"5. c #49B338",
"6. c #48B239",
"7. c #49B239",
"8. c #48B339",
"9. c #49B339",
"0. c #4AB339",
"q. c #49B23A",
"w. c #49B33A",
"e. c #4AB23A",
"r. c #4AB33A",
"t. c #4AB33B",
"y. c #4BB33B",
"u. c #49B438",
"i. c #48B439",
"p. c #49B439",
"a. c #4AB439",
"s. c #48B43A",
"d. c #49B43A",
"f. c #48B53A",
"g. c #49B53B",
"h. c #4AB43A",
"j. c #4BB53A",
"k. c #4AB43B",
"l. c #4BB43B",
"z. c #4AB53B",
"x. c #4BB53B",
"c. c #4CB63B",
"v. c #4BB33C",
"b. c #4BB43C",
"n. c #4BB53C",
"m. c #4CB43C",
"M. c #4CB53C",
"N. c #4DB53C",
"B. c #4CB43D",
"V. c #4DB43D",
"C. c #4DB53D",
"Z. c #4EB53D",
"A. c #4CB63C",
"S. c #4DB63C",
"D. c #4DB63D",
"F. c #4EB63D",
"G. c #4DB53E",
"H. c #4EB53E",
"J. c #4EB63E",
"K. c #4FB63E",
"L. c #4EB63F",
"P. c #4FB63F",
"I. c #4FB73F",
"U. c #4AB33A",
"Y. c #50B73F",
"T. c #50B740",
"R. c #50B740",
"E. c #50B840",
"W. c #51B840",
"Q. c #51B841",
"!. c #51B841",
/* pixels */
"O.s.J O.5 + 9.O.,.O.O.= = s.9.*.O.D + 5 9.9.O.O.5 + D 9.9.O.O.5 + O.9.s.J O.5 + O.O.s.J O.5 + 9.9.s.J O.= 5 s.*.*.O.5 = 5 9.9.,.",
"O.O.5 z + = o O.O.5 5 % + + 9.x O.5 , + + 9.z O.+ 5 o 5 9.5 O.+ 5 o O.O.5 O.+ 5 o O.O.5 x + % o O.O.z 5 % + + 9.z O.% , o = 9.x ",
"= V.5 O.5 x o x 9.5 O.z z O 9.9.5 5 x 5 o s.x 5 5 x + o V.5 z 5 O.+ + V.5 O.5 O.o 5 V.= O.5 x o O.9.5 z x 5 O 9.O.5 5 x 5 o V.x ",
"5 9.o + + . O.5 9.o 5 o o 9.5 *.o 5 o + 9.O.x o 5 X + O.O.5 o + . 5 O.9.+ + + . O.5 9.o + + O 9.5 9.o 5 o o 9.5 O.o 5 o + 9.O.O.",
"9.5 o + o   9.9.5 o + X X b.9.+ o + . + b.O.+ o +   5 V.O.o o +   O.j.O.o + +   9.s.5 o + o . s.s.= o + X o b.9.+ o +   + V.O.+ ",
"z x o o X o 5 x z o o X + 5 x 5 o o o + 5 x % o o o + 5 x + o X o + z x o o X o + x x o o . o 5 x z o o X o 5 x 5 o o o + 5 x 5 ",
"O.o + o o + T.5 o + o o + W.+ + + o o 5 W.+ + + o o 9.V.o + + o o s.s.o + o o o V.O.o + o o + W.5 + + o o = W.+ + + o o 5 V.+ + ",
"O.O.o + o O.*.9.5 o + o O.*.9.+ + o + O.O.9.+ + o + *.O.9.o + X 5 9.O.O.o + X 5 *.O.O.o + o O.*.9.5 o o o O.*.9.+ + o + O.O.9.+ ",
"5 O.s.O.O.5 O.x O.s.O.O.5 O.x 9.s.D z x O.O.9.9.D z O.x O.s.O.D 5 O.x O.s.O.O.5 O.x O.s.O.O.5 O.O.#.s.O.O.5 O.x #.s.D x O.O.O.#.",
"= *.s.9.s.O.o 5 *.s.O.V.5 o 5 *.s.O.V.+ + O.*.s.O.V.+ + O.9.s.9.9.o + *.s.9.s.*.o 5 *.s.9.s.x o 5 *.s.O.V.5 o x *.s.O.V.+ + O.*.",
"O.s.J O.O.5 O.O.s.J O.D D O.O.s.O.O.D O.O.*.,.O.O.D O.O.9.O.O.O.5 O.O.s.J O.O.5 O.O.s.J O.F 5 O.O.s.J O.D D O.O.,.O.O.D O.O.9.,.",
"O.O.5 z + + + 9.O.5 z + + 5 9.O.O.5 % o z O.z O.+ % o O.O.5 O.+ % + O.O.5 O.+ + + O.O.5 x + + = 9.O.D 5 + + 5 O.O.O.% % o O.O.O.",
"5 9.5 O.5 O.. O.9.5 z z x . 9.O.z 5 x 5 . V.z O.5 *.+ o V.5 O.5 *.+ + V.5 O.5 *.X 5 v.5 O.5 O.. O.9.5 z x 5 . 9.O.z 5 x 5 . V.z ",
"+ b.+ 5 + o 5 5 v.o 5 + o x 5 9.o 5 + + z O.O.o 5 o + 5 9.5 + 5 o 5 5 9.+ + = o 5 5 V.+ 5 + o x 5 v.o 5 + o x z 9.o 5 + + z O.9.",
"9.5 o + o   V.9.5 o + X X V.O.+ o +   + V.O.+ o +   5 V.O.+ o +   *.s.5 o o +   s.9.5 o + o . V.9.= o + . o V.O.+ o +   + V.O.+ ",
"x x o o o o + O.z o + o o 5 *.5 o + o o 5 9.% o o X + z *.+ o o X + x *.o o o o + O.x o + o o = *.z o + o o 5 9.5 o + o o 5 *.= ",
"5 + + o o + V.5 + + o o + V.+ + + X o 5 V.+ + o o o O.s.+ + o X o 9.O.o + o X o V.x + + o o + V.5 + + o X + V.+ + + o o 5 V.+ + ",
"O.5 o + o 5 9.#.= o + o 5 9.O.+ + o + O.9.O.o + o + O.9.O.o + o + *.9.D o + o 5 9.9.5 o + o 5 9.O.+ + o o z 9.O.+ + o + O.9.O.o ",
"z 9.O.D 5 O.*.x O.O.5 5 O.O.O.O.O.5 5 O.O.O.O.O.5 5 O.x *.O.O.5 5 9.x #.O.O.5 x 9.x O.O.5 5 O.O.x O.O.5 5 O.O.O.O.O.5 5 O.x O.O.",
"5 O.s.9.s.z + 5 O.V.*.s.5 + x 9.V.O.9.+ + O.9.b.O.9.+ + O.s.s.9.*.+ 5 O.s.9.9.x + 5 O.V.9.s.5 + 5 O.V.O.s.= + x 9.V.O.9.+ + O.9.",
"5 s.O.O.O.O.D 5 s.O.O.O.O.D O.s.O.O.#.O.5 O.,.O.O.#.O.5 9.O.O.O.O.F 5 s.O.O.O.O.D 5 s.J O.O.O.D 5 s.O.O.O.O.5 O.,.O.O.#.O.5 *.,.",
"#.O.D x + + z 9.O.J z + + O.9.O.O.5 + + O.O.O.O.= + + 9.O.J O.+ + + 9.O.J O.+ + 5 9.O.D x + + O.9.O.D 5 + + O.O.O.O.5 + + 9.O.O.",
"5 9.5 x 5 x . O.9.5 z z z . 9.x x 5 x = O s.5 O.= *.+ o V.5 O.% 9.o + s.5 O., *.. 5 9.5 x 5 x . O.O.5 5 x 5 . 9.x x 5 x + o V.5 ",
"+ V.+ 5 5 + + 5 V.+ 5 = + + x 9.+ 5 = + + O.O.+ 5 + + + 9.z + 5 + + + V.5 5 5 + + 5 V.+ 5 5 + + 5 V.+ 5 5 + + x 9.+ 5 = + + O.9.",
"O.5 o + o   V.O.5 o + . O V.O.5 X +   + V.O.+ o +   5 V.O.+ o +   *.s.D o o +   s.9.5 o + o . V.O.5 X + . o V.O.= o +   + V.O.+ ",
"*.x o + + . 5 9.z o + o o 5 9.5 o + X o z 9.% o + . + O.9.+ o + . + O.*.o + + . 5 9.x o + o . 5 9.5 o + o o 5 9.5 o + X o x 9.+ ",
"5 + + o X + 9.5 + + X X + 9.+ + o X o 5 9.+ + o . o 5 9.+ + o . o O.O.+ + o X o 9.5 + + o X + 9.5 + o X X + s.+ + o X o 5 9.+ 5 ",
"O.+ o + o + V.O.+ + + o 5 V.O.+ + o o O.V.5 o + o + O.s.5 o + o + 9.s.5 o + o + s.9.+ o + o + V.O.+ + o o 5 V.O.+ + o o x V.5 o ",
"z 9.5 5 + O.*.x O.5 + + O.O.O.O.5 + = 9.x *.5 D + 5 9.x 9.5 5 + 5 9.x 9.5 5 + O.9.x O.5 5 + O.O.O.O.5 + + O.O.O.O.5 + 5 9.x 9.5 ",
"5 O.V.*.9.5 5 x O.V.O.9.= 5 O.9.V.O.9.+ 5 O.s.V.O.9.+ 5 O.s.s.9.x + 5 O.j.9.9.z 5 z O.V.*.9.5 + x O.V.O.9.+ 5 x 9.V.O.9.+ 5 O.9.",
"5 s.O.O.s.9.+ 5 s.O.O.s.O.+ z s.O.O.j.D + O.*.*.O.s.5 + 9.*.O.O.9.5 + 9.O.O.9.9.+ 5 s.O.O.s.O.+ 5 s.O.O.s.O.+ O.,.O.O.s.O.+ O.*.",
"O.*.J O.+ + O.*.*.D x + + 9.9.O.D 5 + + 9.O.O.O.5 + 5 9.*.J O.= + 5 9.*.J O.+ + O.9.*.D O.+ + 9.9.*.D 5 + + 9.O.O.O.5 + + 9.O.*.",
"O.9.5 x % z . O.O.5 5 5 5 O 9.x x 5 z + o s.5 O.+ x o + s.5 O.+ x X 5 9.5 O.% x . O.9.5 x , z . O.O.z 5 5 = o 9.z O.% x + o s.5 ",
"+ V.+ z 5 5 + 5 V.+ J 5 5 + O.9.+ z 5 + o 9.*.5 5 5 + + V.z 5 5 5 + + V.5 5 5 5 + 5 V.+ z 5 5 + 5 V.+ x 5 5 o O.9.+ J 5 = o 9.*.",
"x O.o + o . b.O.O.X + X o V.F z X + . + V.J 5 o =   5 9.O.+ o +   O.9.O.+ o +   9.O.O.o + o . V.O.x X + X o V.D 5 X + . + V.D 5 ",
"9.x o + + . O.9.5 o + o X O.9.% o + . o O.9.+ o +   + 9.*.+ o +   5 9.O.o + +   z 9.z o + o . O.9.5 o + o o O.9.% o + . + *.9.+ ",
"5 5 o o X + x 5 5 o o . + O.5 = o X o + O.5 + o X o 5 x 5 + o . o 5 z 5 o o . o x 5 5 o o . + x 5 5 o o X + O.5 = o X o + O.5 5 ",
"O.+ + o o + V.O.+ + o o + V.5 + + o o 5 Y.5 + + o o O.V.+ + + o o s.s.+ + + o + V.9.+ + o o + V.O.+ + o o 5 T.5 + + o o z V.+ + ",
"x O.+ + o O.O.O.O.+ + + O.O.9.5 + + + 9.x 9.+ 5 o 5 9.x 9.+ 5 o 5 9.x 9.+ 5 o O.*.O.O.+ + o O.O.O.5 + + + O.O.9.5 + o + 9.x 9.+ ",
"z O.V.O.*.5 5 x O.V.O.O.5 O.x 9.V.O.O.5 O.x s.s.O.O.5 x O.s.s.O.z 5 x O.j.9.O.5 5 x O.V.O.O.5 D x O.V.O.O.5 O.x 9.V.O.O.5 O.O.s.",
"+ 9.*.O.s.O.+ 5 9.*.O.s.O.o 5 9.9.O.V.5 o O.*.9.O.V.: + *.*.9.#.s.+ + 9.O.9.9.9.+ + 9.*.O.s.O.+ 5 9.9.O.j.5 + x *.s.O.V.5 o O.*.",
"O.s.J O.5 + 9.O.,.J O.= 5 9.O.*.D 5 + 5 9.O.O.O.5 + F 9.9.O.O.5 + O.O.s.J O.5 = O.O.s.J O.5 = 9.O.s.D O.+ 5 9.O.*.O.5 = 5 9.*.,.",
"O.O.5 z + 5 o O.O.z z % + + 9.x O.5 5 + + 9.z O.+ 5 o 5 s.z O.+ z o J *.5 O.+ z o O.O.5 x % = o O.O.x 5 , + + 9.x O.% 5 o + 9.x ",
"= V.= O.5 x o 5 9.5 O.z 5 o O.9.5 5 x 5 o s.x 5 5 x + o V.5 z 5 O.+ + V.5 O.5 x o 5 V.= O.5 x o O.9.5 O.x 5 o 9.*.5 5 x 5 o s.x ",
"5 9.o + + . *.5 9.o 5 o o 9.5 *.o 5 X + 9.O.x o 5 . + *.O.5 o + . 5 O.O.+ + + . O.z 9.o + + . 9.5 9.o 5 o o 9.5 O.o 5 X + 9.D x ",
"9.5 o + +   9.9.5 o + X X b.9.+ o + . + s.9.+ o +   5 s.O.o o +   O.s.O.o + +   9.9.5 o + o . 9.9.= o + X o s.9.+ o +   + b.9.+ ",
"z x o o X o 5 x z o o X + 5 x 5 o o o + 5 x % o o o + 5 x + o X o + z x o o X o 5 z x o o X o 5 x 5 o o X + 5 x 5 o o o + 5 x 5 ",
"O.+ + o o + T.5 + + o o + W.+ + + o o 5 W.+ + + o o *.V.+ + + o o s.s.o + o o o V.O.o + o o + W.5 + + o o = W.+ + + o o z Y.+ + ",
"O.O.o + o O.*.O.5 o + o O.O.9.= + o + O.O.9.+ + o + O.O.9.o + X 5 9.O.O.o + X z *.O.O.o + o O.O.O.5 + o o O.O.9.+ + o + O.O.9.+ ",
"z #.s.O.O.5 O.x O.s.O.O.5 O.x 9.s.O.O.5 O.O.9.s.O.z O.x O.s.O.O.5 O.x O.s.O.O.5 O.x O.s.O.O.5 O.x 9.s.O.O.5 O.x 9.s.F x x O.O.#.",
"= *.s.9.s.O.o 5 *.s.O.V.5 o z 9.s.O.V.+ + O.*.s.O.V.+ + O.9.9.9.9.+ + *.s.9.s.*.o 5 *.s.9.s.x o 5 9.s.O.V.5 o x *.s.O.V.+ + O.*.",
"O.s.J O.F 5 O.O.s.J O.D D O.O.s.J O.D D O.*.,.O.O.5 O.O.9.O.O.F 5 O.O.s.J O.F 5 O.O.s.J O.D 5 O.O.s.J O.D D O.O.,.O.O.5 O.O.9.,.",
"O.O.5 z + + + O.O.5 5 + + 5 9.O.O.5 % o 5 O.z O.+ % o O.O.5 O.+ % o O.O.5 O.+ + + O.O.5 x + + + 9.O.J 5 + + 5 O.z O.% % o z O.O.",
"5 b.5 O.5 O.. O.9.5 5 z x . 9.O.5 5 x 5 . V.z x 5 O.+ o V.5 O.5 9.o + V.5 O.5 *.o 5 V.5 O.5 O.. O.9.5 5 x z . 9.O.5 5 x 5 . V.x ",
"= s.+ 5 + o O.5 9.o 5 + o O.5 9.o 5 + + x O.O.o 5 o + z 9.5 + 5 o 5 5 9.+ + = o 5 5 s.+ 5 + o O.5 9.o 5 + o O.5 9.o 5 + + x O.9.",
"9.5 o + o   V.9.= o + X X V.#.+ o +   + V.O.+ o +   5 V.O.o o +   O.s.5 o o +   s.9.5 o + o . V.9.= o + . o V.O.+ o +   + V.O.+ ",
"x x o o o o + O.z o + o o 5 *.5 o + o o 5 9.% o o o + 5 *.+ o o o + x *.o o o o + x x o o o o + O.z o + o o 5 *.5 o o o o 5 *.= ",
"z + + o o + V.5 + + o o + V.+ + + o o 5 V.+ + o o o O.s.o + o X o 9.9.o + o o o V.x + + o o + V.5 + + o X + V.+ + + o o 5 V.+ + ",
"O.5 o + o 5 9.9.= o + o 5 9.O.+ + o + O.9.O.o + o + O.9.O.o + o + *.9.O.o + X 5 9.9.5 o + o 5 9.#.+ o o o x 9.O.+ + o + O.9.O.o ",
"z O.O.D 5 O.9.x O.O.5 5 O.O.x O.O.5 5 O.O.O.O.O.5 5 *.x O.O.O.5 5 9.x O.O.O.5 x 9.x O.O.D 5 O.*.x O.O.5 5 O.O.x O.O.5 5 O.x O.O.",
"5 O.s.9.s.z + 5 O.V.*.s.5 + z *.V.O.s.+ + O.9.b.O.9.+ + O.s.s.9.9.+ 5 O.s.9.s.x o 5 O.s.9.s.5 + 5 O.V.O.s.= + x 9.V.O.s.+ + O.9.",
"5 s.O.O.O.O.D 5 s.O.O.O.O.D O.s.O.O.O.O.5 *.,.O.O.O.O.5 9.O.O.O.O.O.5 s.O.O.O.O.F 5 s.O.O.O.O.F x s.O.O.O.O.D O.,.O.O.O.O.5 *.,.",
"O.O.D x + + 5 *.O.D z + + O.#.O.O.5 + + O.O.O.O.% + + 9.O.J O.+ + + 9.O.5 O.+ + 5 9.O.D x + + 5 9.O.D 5 + + O.O.O.O.5 + + O.O.O.",
"D 9.5 x , x . O.9.5 z 5 5 . s.O.z 5 x + O V.z x % x + o V.5 O.% *.o + V.5 O.% O.. D 9.5 x , x . O.*.5 5 z 5 . s.x x 5 x + o V.x "
};
