/* XPM */
static char *player_xpm[] = {
"64 64 133 2 ",
"   c #34A525",
".  c #020202",
"X  c #090807",
"o  c #0B0B0A",
"O  c #12110F",
"+  c #151413",
"@  c #181717",
"#  c #1B1916",
"$  c #1D1C1B",
"%  c #201F1F",
"&  c #21201E",
"*  c #252323",
"=  c #282726",
"-  c #2B2924",
";  c #2D2B2A",
":  c #312F2E",
">  c #34312E",
",  c #363433",
"<  c #383635",
"1  c #3B3936",
"2  c #3D3B39",
"3  c #403E3C",
"4  c #44413E",
"5  c #4C483F",
"6  c #464441",
"7  c #494642",
"8  c #4D4A45",
"9  c #4F4C48",
"0  c #504C43",
"q  c #514D49",
"w  c #56524C",
"e  c #59554E",
"r  c #5A5650",
"t  c #5D5953",
"y  c #615D55",
"u  c #645F58",
"i  c #666156",
"p  c #66615A",
"a  c #6A655D",
"s  c #6D685F",
"d  c #706A5D",
"f  c #6F6961",
"g  c #726C63",
"h  c #767066",
"j  c #797365",
"k  c #7A756A",
"l  c #7E786C",
"z  c #817B6F",
"x  c #847E72",
"c  c #878074",
"v  c #8A8376",
"b  c #8C8578",
"n  c #8F887B",
"m  c #948C7D",
"M  c #978F80",
"N  c #9B9484",
"B  c #A09785",
"V  c #A09788",
"C  c #A39B8A",
"Z  c #A89F8E",
"A  c #AAA18F",
"S  c #ADA492",
"D  c #B0A795",
"F  c #B2A996",
"G  c #B6AC99",
"H  c #B8AE9A",
"J  c #B8AF9B",
"K  c #BAB09C",
"L  c #BBB19C",
"P  c #BCB29D",
"I  c #BCB29E",
"U  c #BFB59F",
"Y  c #BBB19D",
"T  c #BFB5A1",
"R  c #BFB5A0",
"E  c #C1B7A2",
"W  c #C3B9A4",
"Q  c #C5BBA5",
"!  c #C7BDA7",
"~  c #C4BAA5",
"^  c #C9BEA8",
"/  c #C9BEA9",
"(  c #CBC0AA",
")  c #CCC1AA",
"_  c #CCC1AB",
"`  c #CCC2AB",
"'  c #CEC3AC",
"]  c #CEC3AD",
"[  c #CFC4AE",
"{  c #CDC2AB",
"}  c #D1C6AF",
"|  c #D1C5AE",
" . c #D2C7B0",
".. c #D2C7B0",
"X. c #D3C8B0",
"o. c #D3C8B1",
"O. c #D4C8B1",
"+. c #D4C9B1",
"@. c #D4C9B2",
"#. c #D5C9B2",
"$. c #D5CAB2",
"%. c #D5CAB3",
"&. c #D6CAB3",
"*. c #D6CBB3",
"=. c #D5CAB2",
"-. c #D8CDB5",
";. c #DACEB6",
":. c #DACFB6",
">. c #D9CEB6",
",. c #DBD0B7",
"<. c #DCD0B8",
"1. c #DDD1B8",
"2. c #DDD1B9",
"3. c #DDD2B9",
"4. c #DED2B9",
"5. c #DED3BA",
"6. c #DFD3BA",
"7. c #DFD3BB",
"8. c #DED2B9",
"9. c #E0D4BB",
"0. c #E1D5BB",
"q. c #E1D5BC",
"w. c #E2D5BC",
"e. c #E2D6BC",
"r. c #E2D6BD",
"t. c #E3D6BD",
"y. c #E3D7BD",
"u. c #E3D7BE",
"i. c #E4D7BE",
"p. c #E0D4BB",
"a. c #E4D8BE",
"s. c #E5D8BF",
"d. c #E4D8BE",
/* pixels */
"                                                                                    < < < < < < < < < < <                       ",
"                                                                                  < < < < < < < < < < < < < <                   ",
"                                                  , , , , , , < 1 2 1 < , , , , , , , , < < < < < < < < < < < <                 ",
"                                          , , , , 2 8 t g x M C S D S C m m n c c l s 3 , < < < < < < < < < < < <               ",
"                                    < , , 2 w h N G _ -.5.t.t.t.t.t.t.t.t.t.t.t.t.t.5.N 6 , < < < < < < < < < < <               ",
"                                < , < q x F } 5.t.t.t.9.9.9.9.9.9.9.9.9.9.9.9.9.9.9.9.t.A 7 , < < < < < < < < < < <             ",
"                        < < < , 1 t N ] 9.t.t.9.9.9.9.9.9.9.9.9.9.9.9.9.9.9.9.9.9.9.t.t.a.S 6 , < < < < < < < < < <             ",
"                < < < < < < , q N O.t.t.9.9.9.9.9.9.9.9.9.9.9.9.9.9.9.9.9.9.9.9.9.t.O.H G o.C 3 , < < < < < < < < <             ",
"            < < < < < < < < a W t.t.9.9.9.9.9.9.9.9.9.9.9.9.9.9.9.9.9.9.9.9.9.9.t.S 1 $ $ > v x 1 < < < < < < < < <             ",
"        < < < < < < < < , f O.t.9.9.9.9.9.9.9.9.9.9.9.9.9.9.9.9.9.9.9.9.9.9.9.t.A # 2 A F y + 0 t , < < < < < < < <             ",
"    < < < < < < < < < , 4 P t.9.9.9.9.9.9.9.9.9.9.9.9.9.9.9.9.9.9.9.9.9.9.9.9.t.N y _ a.t.5.N i C 4 , < < < < < <               ",
"  < < < < < < < < < < , g 5.9.9.9.9.9.9.9.9.9.9.9.9.9.9.9.9.9.9.9.9.9.9.9.9.9.9.9.9.t.9.9.9.t.9.5.k , < < < < < <               ",
"< < < < < < < < < < < 2 S t.9.9.9.9.9.9.9.9.9.9.9.9.9.9.9.9.9.9.9.9.9.9.9.9.9.9.9.9.9.9.9.9.9.9.t.T 7 , < < < < <               ",
"< < < < < < < < < < , w  .t.i.t.t.t.9.9.9.9.9.9.9.9.9.9.9.9.9.9.9.9.9.9.9.9.9.9.9.9.9.9.9.9.9.9.9.9.n < < < < < <               ",
"< < < < < < < < < < , z 5.P v a e C t.9.9.9.9.9.9.9.9.9.9.9.9.9.9.9.9.9.9.9.9.9.9.9.9.9.9.9.9.9.9.t.O.g , , < <                 ",
"< < < < < < < < < < 1 m i $ - 4 e C t.9.9.9.9.9.9.9.9.9.9.9.9.9.9.9.9.9.9.9.9.9.9.9.9.9.9.9.9.9.9.9.t. .c 8 , <                 ",
"< < < < < < < < < , 4 8 + c ] 5.t.t.9.9.9.9.9.9.9.9.9.9.9.9.9.9.9.t.t.t.t.9.9.9.9.9.9.9.9.9.9.9.9.t.t.a.a.S 4 ,                 ",
"  < < < < < < < < , 4 - > -.t.9.9.9.9.9.9.9.9.9.9.9.9.9.9.t.t.t.5.o._ _ O.5.t.t.9.9.9.9.9.9.9.9.t.O.S N H 5.v < <               ",
"  < < < < < < < < , 8 y O Z t.9.9.9.9.9.9.9.9.9.9.9.9.t.t.O.S l w 3 , , 4 y m ! 9.t.9.9.9.9.9.t.^ 5 X . + h ] t ,               ",
"    < < < < < < < , q L e N t.9.9.9.9.9.9.9.9.9.9.9.t.O.m 7 * * = ; : : = * $ , x _ t.9.9.9.9.t.j . . . . O L Z 2 <             ",
"      < < < < < < , q [ 5.5.9.9.9.9.9.9.9.9.9.9.9.t.F 8 & = , , * @ @ $ ; < , = $ 7 S 5.t.9.9.t.d . . . . + L O.r ,             ",
"        < < < < < < 2 S t.9.9.9.9.9.9.9.9.9.9.9.9.M ; = , < * X . . . . . = < < , $ = c O.t.9.t.U , . . + j 5.t.c , <           ",
"          < < < < < , k 5.9.9.9.9.9.9.9.9.9.9.t.C * ; < < ; . . . . . . X ; < < < , = * a T t.t.t.] B m G 5.9.t.S 2 <           ",
"            < < < < , w o.t.t.i.i.t.t.9.9.9.t.O.4 = < < < : o . . X o * , < < < < < < , , 8 n ( 9.i.a.a.t.9.9.t.! 7 ,           ",
"                    , 6 Q t.] m l N O.t.9.9.t.F = , < < < < , : : ; $ , < < < < < < < < < , < q l F -.t.9.9.9.t.O.e ,           ",
"                    , 2 J Q 1 . . . w O.t.9.a.n = < < < < < < < < < % : < < < < < < < < < < < , , 2 f E t.9.9.9.-.y ,           ",
"                    < 1 S l . . . . X A t.9.9.s ; < < < < < < < < < = % > , < < < < < < < < < < < , , q F t.9.9.-.y ,           ",
"                    < , N x . . . . + H t.t.L 7 , < < < < < < < , * o . X + * , < < < < < < < < < < < , 8 P t.t.] q ,           ",
"                    < , v } w O X & c 5.t._ y , < < < < < < < , @ . $ ; = @ X o & , < < < < < < < < < < , f 5.5.v 1 <           ",
"                    < , h t.-.H S ! 9.t.} s , < < < < < < < < $ . = < < < < : $ X o = < < < < < < < < < , e ^ c 2 ,             ",
"                      , t -.t.t.t.t.t.O.g , < < < < < < < < ; . $ < < < < < < < ; @ . $ , < < < < < < , 1 p a < ,               ",
"                      , 7 Q t.9.9.9.5.x < < < < < < < < < < $ . : < < < < < < < < , * X o ; < < < < 2 6 7 3 , <                 ",
"                      < < N t.9.9.t.G 4 , < < < < < < < < > X @ < < < < < < < < < < < ; $ = , < < 4 q 6 < 4 1 <                 ",
"                        , p -.9.9.t.x , < < < < < < < < < $ . ; < < < < < < < < < < , , 1 6 3 < , < < 8 l G t ,                 ",
"                        , 2 Z t.9.9.k , < < < < < < < < = . % < < < < < < < < , , , 4 f N E L N x x C ! 5.i.m , <               ",
"                        < , w W t.t.C 1 , < < < < < < , @ $ , < < < < , , , < 4 y n L ,.t.t.t.t.t.t.t.t.9.t.W 7 ,               ",
"                          < , e S ,.-.l 1 , , < , < 3 < , , , , < < 2 6 r h N E -.t.t.9.9.9.9.9.9.9.9.9.9.9.5.g , <             ",
"                            < , 3 s Z T n w 3 2 3 w w < 6 c N N C Z F Q O.5.t.t.9.9.9.9.9.9.9.9.9.9.9.9.9.9.t.Z 1 <             ",
"                              < 2 1 < 6 w w 6 2 3 2 < w A t.t.t.t.t.t.t.t.9.9.9.9.9.9.9.9.9.9.9.9.9.9.9.9.9.t.} w ,             ",
"                              , a S x a e q 8 q r g N ( t.9.9.9.9.9.9.9.9.9.9.9.9.9.9.9.9.9.9.9.9.9.9.9.9.9.9.9.x , <           ",
"                            < , l t.t.5.O.} ] } O.5.t.t.9.9.9.9.9.9.9.9.9.9.9.9.9.9.9.9.9.9.9.9.9.9.9.9.9.9.9.t.F 2 <           ",
"                          , , , c t.9.9.t.t.t.t.t.9.9.9.9.9.9.9.9.9.9.9.9.9.9.9.9.9.9.9.9.9.9.9.9.9.9.9.9.9.9.t.} w ,           ",
"                      < , 4 3 , N t.9.9.9.9.9.9.9.9.9.9.9.9.9.9.9.9.9.9.9.9.9.9.9.9.9.9.9.9.9.9.9.9.9.9.9.9.9.9.5.h , <         ",
"                    < < p D t , Z t.9.9.9.9.9.9.9.9.9.9.9.9.9.9.9.9.9.9.9.9.9.9.9.9.9.9.9.9.9.9.9.9.9.9.9.9.9.9.t.m , <         ",
"                  < , g } O.w 1 F t.9.9.9.9.9.9.9.9.9.9.9.9.9.9.9.9.9.9.9.9.9.9.9.9.9.9.9.9.9.9.9.9.9.9.9.9.9.9.t.S 1 <         ",
"                  , w ( t.] 8 2 L t.9.9.9.9.9.9.9.9.9.9.9.9.9.9.9.9.9.9.9.9.9.9.9.9.9.9.9.9.9.9.9.9.9.9.9.9.9.9.t.H 2 <         ",
"                < < M t.t.^ 7 4 E t.9.9.9.9.9.9.9.9.9.9.9.9.t.t.t.t.t.t.t.t.t.t.t.t.t.9.9.9.9.9.9.9.9.9.9.9.9.9.t.L 3 , <       ",
"                , 6 W t.t.^ 6 4 W t.9.9.9.9.9.9.9.9.9.9.t.t.O.T A M c x l x c M Z P } 5.t.t.9.9.9.9.9.9.9.9.9.9.t.G 2 < < <     ",
"                , r O.t.t.^ 7 4 E t.9.9.9.9.9.9.9.9.9.9.T x e 3 , , , , , , , , , 2 q g C o.t.9.9.9.9.9.9.9.9.9.t.D 1 q p , <   ",
"                , u -.9.t._ 8 3 P t.9.9.9.9.9.9.9.9.5.N 6 , 3 r h v N C Z C N n k y 6 , < t G t.9.9.9.9.9.9.9.9.t.S < t T w ,   ",
"                , q ] t.t.} q 2 G t.9.9.9.9.9.9.9.9.N 2 2 k J O.5.t.t.t.t.t.t.t.9.-.Q N t , 8 G t.9.9.9.9.9.9.9.t.C , y 5.N < < ",
"                < < M t.t.O.r < S t.9.9.9.9.9.9.t.F 6 < n 5.t.t.9.9.9.9.9.7.9.9.9.9.t.t.[ f , w ! t.9.9.9.9.9.9.t.N , a 5.H 2 < ",
"                  , t O.t.-.p , C t.9.9.9.9.9.t.} t , h -.t.9.9.9.9.9.9.7.9.9.9.9.9.9.9.t.] y , g -.9.9.9.9.9.9.t.m , g t.Z 1 < ",
"                  , 4 W t.5.g , m t.9.9.9.9.9.9.b , w ( t.9.9.9.9.9.9.9.7.7.9.9.9.9.9.9.9.t.L 7 1 C t.9.9.9.9.9.t.v , k -.s , < ",
"                  , 6 Q t.t.z , x t.9.9.9.9.t.Q 8 1 C t.9.9.9.9.9.9.9.9.9.9.9.9.9.9.9.9.9.9.9.n , t  .t.9.9.9.9.t.z , g l 1 <   ",
"                , , g -.9.9.k , c t.9.9.9.9.t.v , p -.t.9.9.9.9.9.9.9.9.9.9.9.9.9.9.7.9.7.9.t.] w < C t.9.9.9.9.t.l , 2 < <     ",
"            < , 3 g ( t.t.H 7 1 S t.9.9.9.t. .w < C t.9.9.9.9.9.9.9.9.9.9.9.9.9.9.9.9.9.9.9.9.t.n , a -.9.9.9.9.t.N < , <       ",
"          < 2 h G -.t.t.} t , g -.9.9.9.9.t.F 2 9 _ t.9.9.9.9.9.9.9.9.9.9.9.9.9.9.9.9.9.9.9.9.t.T 4 4 E t.9.9.9.t.[ t , <       ",
"          , e O.t.9.9.t.V , w ^ t.9.9.9.9.t.M , s 5.9.9.9.t.t.t.t.9.9.t.t.t.t.9.9.9.9.9.9.9.9.t.-.t , Z t.9.9.9.9.t.F 6 ,       ",
"          , q ] t.9.9.7.h , c t.9.9.9.9.9.5.h , c a.t.t.5.^ S m l k k c N H } 5.t.t.t.t.t.t.5. .J t , c t.9.9.9.9.9.9.x , <     ",
"          < < l ( ,.5.-.u , C a.t.t.t.t.5.C 4 < c H F N g 8 1 , , , , , < 3 w g v N C C M x f w 3 < , 9 P t.t.t.t.t.a.N , <     ",
"            < < 8 p f a 4 , z _ } ^ H N a 3 , < 2 2 2 < , , <             , , , , , < < , , , , ,   < , 8 c D W ( ^ F r , <     ",
"              < , , , , , < 2 8 q 7 3 < , , <     , ,                                                 < , , 2 6 8 7 2 , <       ",
"                            < , , , , <                                                                   < < , , , , <         "
};
