/* XPM */
static char *bwall_xpm[] = {
"64 64 219 2 ",
"   c #AD5C03",
".  c #AB5E0A",
"X  c #A65907",
"o  c #B45D00",
"O  c #B95E00",
"+  c #A55D14",
"@  c #A85F11",
"#  c #A35F1D",
"$  c #AD600B",
"%  c #B56202",
"&  c #BB6300",
"*  c #BD6903",
"=  c #BD6C0C",
"-  c #B0620A",
";  c #AB6214",
":  c #AC641A",
">  c #AF691F",
",  c #BB6E13",
"<  c #B76F1D",
"1  c #B96F1A",
"2  c #B26715",
"3  c #BE7115",
"4  c #BD731C",
"5  c #AA6621",
"6  c #AE6A24",
"7  c #A76629",
"8  c #B46E22",
"9  c #B67125",
"0  c #BB7422",
"q  c #BF7826",
"w  c #B6732D",
"e  c #BA762A",
"r  c #BD792C",
"t  c #AA6C34",
"y  c #A66B36",
"u  c #AC7039",
"i  c #AE7036",
"p  c #B57532",
"a  c #B97732",
"s  c #BB7934",
"d  c #B4763B",
"f  c #B6793D",
"g  c #BA7C3B",
"h  c #C36F04",
"j  c #C16F0A",
"k  c #C57103",
"l  c #CC7402",
"z  c #CF7805",
"x  c #C4720C",
"c  c #C97509",
"v  c #CD7A0B",
"b  c #D27600",
"n  c #D47B02",
"m  c #D97D00",
"M  c #D47E09",
"N  c #C37413",
"B  c #CB7A14",
"V  c #C1751A",
"C  c #C5791C",
"Z  c #CA7C1B",
"A  c #D17F12",
"S  c #C57B23",
"D  c #C27C2B",
"F  c #C67C24",
"G  c #C27E33",
"H  c #C27E39",
"J  c #C97E36",
"K  c #AC7343",
"L  c #AA7348",
"P  c #B57A42",
"I  c #B97E45",
"U  c #B57D4B",
"Y  c #BA7F4A",
"T  c #AE7C56",
"R  c #B47E52",
"E  c #BD7F50",
"W  c #A76E40",
"Q  c #C57F41",
"!  c #BF803E",
"~  c #DA8104",
"^  c #D6810D",
"/  c #DB840B",
"(  c #CE801B",
")  c #D58214",
"_  c #DA8613",
"`  c #DD8815",
"'  c #D4841B",
"]  c #D8871B",
"[  c #D7881F",
"{  c #DB8A1C",
"}  c #CD8223",
"|  c #C7802E",
" . c #CC832B",
".. c #D38623",
"X. c #D68925",
"o. c #DA8C23",
"O. c #D2862A",
"+. c #D58A2C",
"@. c #DB8E2A",
"#. c #DA852C",
"$. c #DC912D",
"%. c #C58235",
"&. c #CA8433",
"*. c #CE8934",
"=. c #C4833C",
"-. c #C9843B",
";. c #CC893C",
":. c #D48433",
">. c #D48D34",
",. c #D28E3B",
"<. c #D78A36",
"1. c #DC9334",
"2. c #D6923D",
"3. c #DB953C",
"4. c #DE983D",
"5. c #D69037",
"6. c #E58D2C",
"7. c #E88C25",
"8. c #EA912C",
"9. c #E7902E",
"0. c #E18E32",
"q. c #E59133",
"w. c #E2923B",
"e. c #EA973B",
"r. c #BD8144",
"t. c #B7804F",
"y. c #BB824C",
"u. c #B68154",
"i. c #BA8453",
"p. c #B7845B",
"a. c #B9865B",
"s. c #BC895D",
"d. c #BF8854",
"f. c #B98661",
"g. c #BC8B64",
"h. c #BD8E69",
"j. c #B68765",
"k. c #BE906D",
"l. c #BE9273",
"z. c #C38544",
"x. c #C68946",
"c. c #CB8B43",
"v. c #C1864B",
"b. c #C58A4B",
"n. c #CA8D4A",
"m. c #D18C42",
"M. c #CE914D",
"N. c #CF9047",
"B. c #D49243",
"V. c #DB9741",
"C. c #DC9945",
"Z. c #D3954A",
"A. c #DC9C4C",
"S. c #D8984C",
"D. c #C48B53",
"F. c #C98F53",
"G. c #C38C5B",
"H. c #C98E59",
"J. c #CC9254",
"K. c #CC945B",
"L. c #CB955B",
"P. c #D29653",
"I. c #D59954",
"U. c #DA9D53",
"Y. c #D3965A",
"T. c #D49B5B",
"R. c #D99E5B",
"E. c #E29B45",
"W. c #E59943",
"Q. c #DEA055",
"!. c #DCA15C",
"~. c #E9A45C",
"^. c #E6A257",
"/. c #C08E63",
"(. c #C08E68",
"). c #C39164",
"_. c #CA9563",
"`. c #CD9965",
"'. c #C4946B",
"]. c #C9966A",
"[. c #CC9A6B",
"{. c #D39C63",
"}. c #D19E6B",
"|. c #DC9D64",
" X c #C29673",
".X c #C69974",
"XX c #CB9C73",
"oX c #C19779",
"OX c #C49A7C",
"+X c #CA9E7B",
"@X c #CA9773",
"#X c #D09F71",
"$X c #D6A067",
"%X c #DBA364",
"&X c #D5A16C",
"*X c #DAA56C",
"=X c #DCA86F",
"-X c #CDA17C",
";X c #CFA075",
":X c #D4A373",
">X c #DAA672",
",X c #DBA976",
"<X c #D3A57C",
"1X c #D6A97E",
"2X c #D9AA7B",
"3X c #E4A769",
"4X c #E6AA71",
"5X c #E2AC7A",
"6X c #C69E82",
"7X c #C89F81",
"8X c #CBA384",
"9X c #CDA589",
"0X c #CFA88A",
"qX c #D1A684",
"wX c #D5A984",
"eX c #DAAC82",
"rX c #D2AA89",
"tX c #D8AE8F",
"yX c #D7AE91",
/* pixels */
"~.0.w.q.c.M.M A ^ C J.M A ) B H.^ A ) v D.) M ) z G.W.0.w.0.G.+.M ) n z.>.M ) M G B.n A M D M.n A ^ S J.M A ^ B d.* = = - D.) A ",
"^.6.q.8.;.c.m M m N n.m M ~ c b.~ n M l v./ n ^ b v.e.6.q.6.D.[ n M m s +.n M m D >.n M m S c.m M m C n.m M M v y.& & & o v./ n ",
"XXy.v.v.f. Xp g s P .Xs g s d oXg s g d oXr.s g p oXG.v.v.Y l.D.a g p g.G.p g a a.).a g a R '.p g s U .Xa s s P l.t t t y oXg g ",
"!.P.8XR.U.!.I.8X*XU.!.I.-X>XI.!.I.XXXXb.K.F.'.1XI.!.U.`.wXI.!.R._.wXR.!.!.T.8XF.J.J.D.8X%XR.!.I.8X%XR.!.I.-X*XI.!.U.-X,XU.!.R._.",
"M b v._ n n n z.] n n m H o.n n m D D & & & > ,.m n m C c.m n m c n.m n m c y.& & & o y./ n n n z.` n n n =.o.n n m G +.n n ~ , ",
"N = i.Z x N j i.| x N h I &.x N k f d   .   7 b.k N x 9 D.x N x 1 G.x x x 3 p.- . . X i.Z x x = i.F x N h Y &.x x k f -.h x x > ",
"+X'.wXXX X+X'.wXXX X6X'.qX-X'.6X'.-X<X'.6X'.+XwX'.+X.X.XwX'.OX.X[.eX'.OXoX'.qX'.l.OX'.wXXXoX+X'.wXXX X+X'.qX-X'.6X.XqXqX.X6X'.XX",
"E._ ) _  .I./ ) _ } T.` ) _ ' _.` _ _ ) K.{ _ _ ) L.$._ _ / D.1._ _ / b.%.* = h f S./ ) _ &.I./ ) _  .T._ ) ` ( }.W.e.e.W.{.{ _ ",
">.l n n 4 c.b n n x x.b b n k v.n b b l y.n b n l r.) b n b g ' b n b a 9 o % O 5 >.b n n 4 ;.b n n N x.b n n k H.6.@.6.#.D.m l ",
"XXU i.y.f.+XU i.y.p.8Xy.i.y.u.8Xy.y.y.U 6Xd.y.i.U 6Xs.y.i.U oX).Y i.U l.h.K U K j..XU i.y.g.+XY i.y.p.6XY i.y.u.9XG.G.G.a.8Xi.y.",
"C.B.-XU.V.C.V.XXJ.-.;.%.'.%XV.C.3.`.*X3.C.V.K.>X3.C.V.P.XX-.;.-.y.1XV.C.C.Z.1XA.C.C.B.<XA.V.C.V.-XQ.V.C.3.XX!.V.C.3.`.%X3.C.C.F.",
"m b z./ n n n g = & & O p o.n m m r >.n n m V ,.m n m C g & & &   c.m n m l b.m n m l z./ n m b z._ n n n g ] n n m r +.n n m = ",
"4 1 g.D 4 4 1 p.p @ ; @ T x.3 4 3 U b.3 4 4 f D.3 4 4 p p.@ ; ; 5 ).4 4 4 8 /.S 4 4 < g.D 4 4 1 s.%.4 4 1 i.-.4 4 , U x.4 4 4 t ",
"<X`.2X}..X8X`.2X&XXX9X`.,X:X].9X`.:X:X].9X[.:X,X`.8XXX}.2X`.8X:X}.2X`.6X-X`.2X`.+X8X`.2X}..X8X`.2X&XXX8X`.,X:X[.9X`.:X:X].9X[.}.",
"4.n ^ ~ F Z.~ ^ / Z J.~ ^ / v J./ ^ / M F.` M ^ n D.{ n ^ m b.@.n ^ m =.1.m ^ ~ %.2.m ^ ~ F Z.~ ^ ~ Z P.~ ^ / B J./ ^ / M J./ ^ ",
">.l c l 4 x.l c l 3 b.l c l j v.z c c h y.M l c l y.A l c l I } l c l s  .l c l e ;.l c l 9 c.l c l 3 b.l c l j b.l c z h v.M l ",
"-Xs.g.g.k.8Xa.g.g.h.9Xs.g.g.g.9Xg.g.g.s.9X/.g.g.a.9X'.g.g.p.8X Xs.g.a.+X+Xa.h.s.oX-Xa.g.s.l.8Xp.g.g.h.9Xs.g.g.g.9Xs.g.g.g.9Xg.g.",
"1.+.[.4.@.$.@.`.C.@.$.@._.U.@.$.@.L.!.@.$.$.M.%X@.$.$.c.&X$.$.$.,.:X$.$.$.>.:X1.$.$.+.[.&.S F S '.E.@.$.@.`.A.@.$.@.L.U.@.@.$.-.",
"m b r./ b n b g ) n n n s ..n n n r +.n n m V ;.n n m N c.n b m x c.m b m l b.m b m l r.* & & o f _ b n b g ] n n n r ..b n m = ",
"a w l.! e a w h.v.e a w g.D.e a e u.G.e a e U ).e a e P '.e a e d  Xe a s a .Xs a a w l.i 7 7 7 h.z.e e 9 g.b.w a e p.G.e r a K ",
"2XT.%XT.[.wXT.%X%X`.rXT.%X%X_.rXT.%X%XT.9X{.%X%XT.8X$XT.%XT.8X:XT.%XT.-XXXD.{.D. X1XT.%XR.XXwXR.%X%X`.yX>X5X5X:X9XG.K.K.G.9X{.{.",
"1.n n m C c.m n m B n.m n m c n.~ n M b b./ m n n v._ m n n z.o.n n m G S & & & 8 5.m n m S m.m n ~ N T.8.0.8.<.v.& & & o b./ n ",
",.k x c 0 b.k x c 1 D.k x c , D.c x x = d.B x x h i.Z x x h Y | k x k f w   .   7 c.k x k w b.k x c 1 _.#.:.:.-.i.    o X i.B x ",
"qX'.oXk.oX8Xg.oX'. XrX'.oX X'.rX'.oX.X'.rX'. X.X'.rXXX'.OX).qXXX'.OX'.8X-Xh.oXh.+XqX'.oX'..XwX).oX'. XrX'.OX.X XrX'.l. Xk.rX'.'.",
"] ' ).S N N = G.1.] ] _ F.V._ ] ` n.S._ ] ` ;.U.` ] ` &.T.` ] `  .{.` ] ` ..{.o.] ] ' _.$.] ] _ K.1.] ] _ J.3._ ] ` n.C.` ] ` D ",
"n l I * o & o d ' b n b s ..b n n r +.b n n 4 ;.b n n N c.n n n x x.n b n l v.m b n l z.^ b n l r.) b n b g ..b n b e O.b n n = ",
"r.P OXU K K u l.G.P r.P l.).I I P h.'.P I P p..Xf I I u.OXP I I U +XI I I U 6Xy.I I P OXd.I r.P oXG.I I P l./.P I P h.'.P I I R ",
",XS.A.A.{.1XC.A.A.Y.-Xx.n.n.v.qXA.A.A.Z.rX4X3X3X3XqXR.S.A.S.-X%XS.A.C.XX*XS.A.S.`.>XC.A.S._.XXx.n.c.D.1XS.A.A.P.wXS.A.A.Z.qXU.S.",
"1.n n m V c.m n m c r.& & & o v.~ n m l D.e.6.9.7.D./ n n n ! ] n n m s +.n n m D >.n n m C s & & & - n.m m m c b.m n m l b.~ n ",
"N., N N p G.N V N 9 p.. ; $ + g.V 3 V 1 (.m.&.-.J g.D 3 V , i.%.3 N = U x.3 V N f b.= V N a i.. ; . 5 G.N N V 8 /.V N V 1 g.C N ",
"<X].8XXXXX1X].6XXX[.eX].6X+X[.eX`.+X-X].eX[.OX8X].1X#X.X8X].1X:X.X8X].<X<X'.8X[.:X<X'.8XXX:X1X].8XXXXXeX].6X+X[.eX].+X-X].eX[. X",
"/ M D.{ ^ ^ n b.@./ ^ ~ x.1./ ^ ~ -.3.~ ^ / | Z.~ ^ / F P.~ ^ / Z P./ ^ / A K.` ^ / M J.` ^ ^ n F.o.^ ^ ~ b.$./ ^ ~ -.3.~ ^ / V ",
"z l y.A l z l I ' l z l g ..l z b e &.l z b 0 ;.l c b 3 x.b c b x b.b c b h b.n l n k y.M l z l r.) l z l g ..l z b a  .l c b 2 ",
"s.i.8X/.p.s.i.6X'.p.s.i.OX.Xi.s.i.oX+Xi.s.i.k.8Xi.s.p.g.8Xi.s.s.g.9Xp.s.s.a.9Xs.s.s.p.9Xg.p.s.i.8X'.p.s.i.+X'.i.g.i.oX.Xi.s.p.g.",
"3X1.1.1.N.eX^.^.^.|.:X1.1.1.,.:X3.1.1.5.XX&.| %.D .XA.1.1.1.[.U.1.1.1.`.!.1.1.1.K.%X1.1.1.J.*X1.1.1.N.:X1.1.1.,.:X1.1.1.,.:X4.3.",
"1.b n m N Y.7.6.8.:.c.m n m l b.m n m l I & & & o P _ n n b g ' n m n s X.n n m q >.n n m V ;.n n m x c.m n m k x.m n m l b.~ b ",
"L.0 e 0 d .XQ z.z.E '.0 e e w '.r e r w h.7 5 5 # j.=.0 e 9 g.z.0 0 9 p.D.9 0 9 U G.9 e 0 P ).9 r 0 d '.0 e e p '.r e r w '.r e ",
"*X_.9X$X$X*XT.8X&X{.=X{.8X:X{.=X{.+X<X{.=X{.XXwX{.=X$X[.wX{.*X$X`.rX{.*X*X`.9X{.*X*X_.9X$X$X*X{.8X&X{.=X{.8X:X{.=X{.+X<X{.=X{.[.",
"~ b b.` m M n z.] m M m =.@.m M m G >.m M m F B.m n ~ C N.m n ~ v M.~ n ~ z F./ n ~ b b._ n M n b.` m M m z.o.m M m G >.m n ~ 3 ",
"c h i.B k c k y.} l c l f  .k c l a -.l c l e c.l c c 4 b.l c c , D.c c c = D.z c c h d.B k c h y.( k c l I  .l c l a &.l c c 2 ",
"'.g.rX'.k. Xg.8X.Xg. Xg.8X+Xg.oXg.+X-Xg.oX/..XqXg. X'. XrXg. X'.'.rX/. Xk.h.0Xh.k. Xg.rX'.k. Xg.9X.Xh. Xg.8X.Xg.oXg.+X-Xg. X'. X",
"^.] o.{ ;.L.V V V e {.o.o.o.O.}.o.o.o...`.$.o.o.[ _.1.o.o.] K.4.] o.{ J.c.N V V I Q.] o.{ ;.R.{ o.o.*._.C V V 9 `.o.o.o...}.$.o.",
"@.b n n V g O & &   x.n b m l v.m b m l r.n b m l r.) b n b g ' b n n s 4 o & O 5 >.b n n V ;.n n n N g O & &   z.m b m l v.m b ",
"].d g g u.l.t u t L OXg g f P OXg f g f OXr.g g d oXy.g g d l.D.f f a g.p.y u t T '.a g g u..Xf g g U l.t u t W OXg g g d OXI f ",
"U.I.8X!.U.!.I.8X%XU.!.S.-X*XU.!.U.XXXXb.J.n.).1XS.!.U._.wXU.!.U.K.tX4X4X4X>XrXU.U.Q.P.qX!.U.!.P.8X%XU.!.U.-X*XU.!.U.XX>XU.!.U._.",
"n b v./ n n n r.] n n m g X.n n m D D & & & > ,.m n m C c.m n m c Y.8.6.8.#.F.~ n m b b./ n n n z.` n n n =.o.n n m r +.n n m , ",
"N = p.F x N = i.| x N j U %.x N x f f   . . 7 b.x N x 9 D.x N N < ].:.&.:.H /.C N N = s.C N N = i.F x N j y.&.x N x P -.x N N 6 ",
"+X'.wXXX.X6X'.wX;X X6X'.<X<X'.6X'.<X<X'.6X'.XXwX'.6XXXXXwX'.6X.XXXeX].OX+X[.eX[.OX+X'.eXXX.X+X'.wXXX X6X'.wX<X'.6X'.<X<X'.6X[.XX",
"E./ ) /  .I./ ) _ } T./ ) _ ( K.` ) _ ) K.{ _ _ ^ L.o._ ) / F.1./ ) / x.3./ ) / -.S./ ) / &.I./ ) _ } T./ ) _ ( K.` ) _ ) K.` _ ",
">.l n b 4 c.b z b x x.b z b k v.b l b l y.M l n l r.) l n l g ' l n b s O.b n b e *.b z b 4 ;.b z b N x.b z b k v.b l b k v.n l ",
"XXt.d.i.g.8Xy.i.i.a.8Xi.i.i.u.8Xi.i.i.u.8Xs.i.i.U 6X/.i.i.U OX).t.i.U oX Xt.i.y.k.+XU i.i.g.+Xy.i.i.a.8Xy.i.i.p.8Xi.i.i.u.8Xd.i.",
"V.2.-XA.3.V.3.XXU.3.V.3.[.J.%.-.%./.%X3.V.3.K.*X3.V.4.M.eX~.~.~.|.1X4.V.4.B.<XV.3.V.2.+Xc.%.-.G XXQ.3.V.3.[.!.3.V.3.`.%X3.V.4.n.",
"m b z./ n n b ! _ n n n s 4 O & & 6 +.n n m V ;.n n m N Y.7.6.8.:.n.m n m l b.~ n m b r.* & & o f ` n m n g ] n n m r +.n n m = ",
"0 < g.G 4 0 1 g.=.4 0 4 u.P + : + L F.4 0 4 P G.4 0 4 p @X-.-.-.Y '.4 0 0 9 '.q 0 0 < g.6 ; : + p.%.4 0 4 p.x.4 0 4 U b.4 0 0 t ",
"<X`.,X}..X8X`.,X&X[.9X`.>X:X].9X}.:X>X`.9X}.&X,X`.9X:X&X,X_.8X:X}.,X`.6X<X{.,X{.+XqX`.,X}.XXqX{.,X&XXX8X).XX].'.9X{.:X:X].9X}.&X",
"4.m M ~ F Z.m M ~ B J.~ M ~ v J./ M / n F._ n ^ n b.` n ^ m z.o.m M m =.1.m M ~ G 2.m M ~ F Z.m M ~ Z v.& & * - F.~ M / M J./ M ",
",.l c l 4 x.l c l 3 b.l c c j D.z c c h d.v c c k y.B l c l I } l c l g  .l c l e ;.l c l 9 c.l c l 3 I o o % X v.z c c h D.z c ",
"+Xa.h.g.k.8Xa.h.g.h.9Xs.h.g.g.9Xg.g.g.a.9Xg.g.h.a.8X'.g.h.a.6X Xg.k.a.OX.Xa.k.s.oX+Xa.h.g.l.8Xa.h.g.h.8Xp.g.f.j.9Xg.g.g.g.9Xg.g.",
"@.X.`.1.o.@.X._.V.o.o.o.L.C.X.X.o.F.U.o.X.o.n.R.o.+.o.;.$Xo.X.o.*.&Xo.o.o.O.}.$.o.o...[.1.o.o.X.`.4.o.@.o.K.C.o.o.o.J.U.o.X.o.%.",
"m b r./ n n b g ) n n n s ..n n m r +.n n m V ;.n n m N c.n n m x c.m b m l b.m b m l z./ b n b r._ b n b g [ n n n r O.n n m = ",
"s p l.r.a s p k.v.a s w g.D.w s w p.).w s a R '.w s a U  Xp s a d .Xa s s d oXg s s p oXr.a s p l.v.p s w h.D.p s w p.G.p s s K ",
",XP.!.I.].-Xb.L.F.s.qXP.R.R.K.qXT.R.R.J.8XT.R.R.J.8X{.I.!.P.-X$XI.!.P.+X:XP.!.P.XXXXb.L.D.g.1XP.!.I._.wXP.R.R.K.qXP.R.R.K.8XT.T.",
"1.b n n C g O % & . n.m n m c b.m b m l b./ b n b v._ b n b r.[ b n n s +.b n n D s O % & : c.n n m N n.n n m c b.m b m l b.~ b ",
"V.M ) ^ D y.& = * 2 J.^ ) ) B D.) ) ) v D.' A ) z D.X.M ) M v.+.M ) M r.>.M ) M %.H & = * 6 N.M ) ^ S J.M ) ) B F.^ ) ) B D.) A "
};
