/* XPM */
static char *start_xpm[] = {
"48 48 2 1",
"  c None",
"W c #FFFFFF","
"                                                ",
"                                                ",
"                                                ",
"                                                ",
"                                                ",
"                                                ",
"   WWWWWWWWWWWWWWWWWWWWWWWWWWWWWWWWWWWWWWWWWW   ",
"   WWWWWWWWWWWWWWWWWWWWWWWWWWWWWWWWWWWWWWWWWW   ",
"   WWWWWWWWWWWWWWWWWWWWWWWWWWWWWWWWWWWWWWWWWW   ",
"   WWWWWWWWW                                    ",
"   WWWWWWWWW                                    ",
"   WWWWWWWWW                                    ",
"   WWWWWWWWW                                    ",
"   WWWWWWWWW                                    ",
"   WWWWWWWWW                                    ",
"   WWWWWWWWW                                    ",
"   WWWWWWWWW                                    ",
"   WWWWWWWWW                                    ",
"   WWWWWWWWW                                    ",
"   WWWWWWWWW                                    ",
"   WWWWWWWWW                                    ",
"   WWWWWWWWWWWWWWWWWWWWWWWWWWWWWWWWWWWWWWWWWW   ",
"   WWWWWWWWWWWWWWWWWWWWWWWWWWWWWWWWWWWWWWWWWW   ",
"   WWWWWWWWWWWWWWWWWWWWWWWWWWWWWWWWWWWWWWWWWW   ",
"                                    WWWWWWWWW   ",
"                                    WWWWWWWWW   ",
"                                    WWWWWWWWW   ",
"                                    WWWWWWWWW   ",
"                                    WWWWWWWWW   ",
"                                    WWWWWWWWW   ",
"                                    WWWWWWWWW   ",
"                                    WWWWWWWWW   ",
"                                    WWWWWWWWW   ",
"                                    WWWWWWWWW   ",
"                                    WWWWWWWWW   ",
"                                    WWWWWWWWW   ",
"                                    WWWWWWWWW   ",
"                                    WWWWWWWWW   ",
"                                    WWWWWWWWW   ",
"   WWWWWWWWWWWWWWWWWWWWWWWWWWWWWWWWWWWWWWWWWW   ",
"   WWWWWWWWWWWWWWWWWWWWWWWWWWWWWWWWWWWWWWWWWW   ",
"   WWWWWWWWWWWWWWWWWWWWWWWWWWWWWWWWWWWWWWWWWW   ",
"                                                ",
"                                                ",
"                                                ",
"                                                ",
"                                                ",
"                                                ",
};